<svg xmlns="http://www.w3.org/2000/svg" xml:space="preserve" width="3000.417" height="1242.425"><script/><path d="M3000.417 3.754c0-1.515-7.755 1.191-12.137.94-1.451-.083-3.235 1.122-3.761 2.116-2.116 3.996-8.92 3.319-12.231 3.847-23.949 3.818-45.627 2.279-69.024 7.847-22.88 5.446-44.418-2.04-67.289-3.405-30.68-1.831-63.528.795-93.001 9.823-29.125 8.922-38.056 26.078-51.576 50.634-13.971 25.373-33.422 20.587-55.599 35.03-24.109 15.702-33.693 46.283-47.141 70.129-9.639 17.092-23.707 30.593-34.22 47.168-19.654 30.986-34.026 71.976-66.046 92.394-14.495 9.243-31.944 12.414-45.068 24.077-14.47 12.859-20.389 31.586-31.063 47.186-10.885 15.911-24.561 27.752-32.971 45.445-8.947 18.819-14.376 38.682-27.867 55.01-14.894 18.026-35.401 30.69-52.076 46.906-23.637 22.988-49.257 39.018-76.614 57.027-23.343 15.367-51.545 30.656-71.142 50.678-39.068 39.915-66.083 83.5-113.781 115.313-24.456 16.311-57.697 25.099-79.135 44.823-11.887 10.936-14.775 25.675-24.095 38.233-8.602 11.59-21.269 18.559-33.419 25.854-47.709 28.645-49.598 57.422-61.144 107.693-5.854 25.487-24.599 80.949-51.108 90.742-18.115 6.691-34.458-9.812-48.371-19.301-26.678-18.193-54.858-30.831-83.579-45.227-29.284-14.678-57.708-26.534-88.591-37.066-12.302-4.196-25.182-6.137-37.491-10.171-6.028-1.976-11.787-1.914-17.426.724-3.702 1.732-7.719 1.973-11.536 3.102-1.508.446-3.026-.208-2.448-1.829 1.74-4.878.554-9.899.989-14.827 1.799-20.41 8.37-40.607 3.277-61.393-.308-1.256-.021-2.655-.03-3.987-.128-17.887.011-35.812-2.405-53.56-.761-5.594 1.189-10.923-.42-16.679-1.768-6.324-3.558-12.739-4.867-19.188-1.324-6.525-5.89-12.788-2.292-19.993.465-.93-.169-2.656-.722-3.807-3.638-7.575-2.642-15.714-3.059-23.681 2.029-.076 2.444 1.512 2.958 3.036 3.172 9.412 6.575 18.746 9.747 28.159 3.053 9.057 7.556 17.542 2.728 27.273-.812 1.636-.052 3.347 1.437 4.365 1.9 1.299 8.402.508 9.932-1.229 2.203-2.501 3.989-5.272 5.042-8.506 2.675-8.219-.622-17.277 3.652-25.337.583-1.1-.467-3.164-.967-4.715-.505-1.568-1.76-3.031-1.833-4.58-.519-10.954-6.464-20.185-9.266-30.355-1.944-7.056-5.067-13.847-5.205-21.544-.118-6.571 1.396-13.251-.722-19.779-3.667-11.302-7.196-22.65-10.883-33.946a81.963 81.963 0 0 0-3.661-9.276c-3.171-6.776-7.298-12.615-14.793-15.385-2.716-1.004-5.674-1.649-7.785-4.168-4.286-5.113-9.378-9.161-15.514-12.116-4.441-2.14-4.89-3.949-1.851-7.782 2.582-3.257 3.238-6.544 2.671-10.188-.765-4.913-1.474-9.946-3.156-14.583-5.433-14.983-20.464-19.631-33.963-11.299-7.604 4.693-11.288 10.982-10.857 19.807.146 2.993.491 5.994.384 8.978-.178 4.968 1.428 9.015 4.927 12.588 3.127 3.193 3.046 3.563-1.229 5.712-6.413 3.223-11.839 6.857-13.631 14.683-1.036 4.528-4.393 8.275-9.151 9.901-5.587 1.909-8.596 6.408-10.616 11.282-2.529 6.102-5.146 12.292-6.083 18.93-2.914 20.626-7.059 41.065-8.042 61.993-.264 5.62.913 11.327-.381 16.772-1.208 5.087-.73 10.037.341 14.817 1.174 5.237 1.904 10.384 2.031 15.751.111 4.693 1.344 9.414 5.889 12.003 2.385 1.358 2.865 3.195 3.287 5.629 2.205 12.73 6.261 16.867 18.149 19.014 1.352.244 3.006.362 3.625-.797.625-1.17-.202-2.541-1.494-3.29-3.705-2.145-5.962-5.223-6.222-9.601-.076-1.284-.27-2.687 1.055-3.382.21-.11 1.295 1.189 1.797 1.954.729 1.11 1.191 2.401 1.959 3.478 1.03 1.444 2.535 2.382 4.213 1.316 1.304-.828.823-2.289.39-3.59-2.407-7.232-5.266-14.358-7.063-21.741-4.291-17.619-3.847-35.393-.892-53.218.676-4.079 2.305-7.58 4.127-11.107.263-.51 1.034-.757 1.57-1.126.272.485.711.944.791 1.458.74 4.796 3.042 9.161 2.014 14.466-1.964 10.135-2.148 20.456-1.847 30.828.168 5.807-2.375 11.73 3.571 16.375 1.143.893.828 3.735 1.067 5.692.802 6.591 1.553 13.188 2.317 19.783.777 6.709 1.006 13.531 4.85 19.515.665 1.035.51 2.585.778 3.887 2.397 11.633 4.98 23.127 5.925 35.129.996 12.649 2.597 25.036-.686 37.51-2.075 7.884-1.81 15.79-.28 23.748 1.817 9.448 3.415 18.938 5.135 28.405 1.597 8.789 1.604 8.755-7.187 11.436-2.509.765-5.287.595-7.494 2.445-11.213 9.401-25.429 10.984-38.859 14.184-4.943 1.178-9.795 2.27-13.867 5.005-39.562 26.573-86.11 27.146-128.998 44.735-33.08 13.567-66.595 26.117-100.403 37.747-25.91 8.913-54.478 22.25-82.239 16.148-19.433-4.271-38.419-11.938-57.994-16.334-40.404-9.074-81.526-15.285-120.881-28.544-62.552-21.074-112.718-61.306-170.213-94.071-53.586-30.538-111.177-54.652-167.722-79.066-36.485-15.753-76.363-16.221-113.189-30.927-69.158-27.618-138.865-58.198-211.788-73.738-18.93-4.034-36.328-12.864-54.959-17.855-18.546-4.969-35.407-1.27-53.586-3.965-17.257-2.559-44.583-7.728-59.134-17.596-7.103-4.818-12.734-11.707-21.303-14.569-3.451-1.153-6.57-3.157-10.409-2.728v536.143h3000.449c.001-.003-.031-1077.701-.031-1238.674zM1489.654 741.613c.162.06.271.096.343.118-.174-.027-.476-.013-.381.367-.407-.025-.305.336-.242.482a6.533 6.533 0 0 0-.205-.352c-.382-.623-.184-.86.485-.615zm-47.878 162.932c3.547-9.879 3.497-20.502 6.464-30.552 1.326-4.491.79-9.791.078-14.571-1.569-10.535-3.154-21.017-2.767-31.724.17-4.692.833-9.258 2.063-13.758.32-1.171.19-2.879 2.047-2.892 1.787-.013 1.737 1.598 2.129 2.781.311.94.45 2.023 1.015 2.781 14.899 19.973 17.854 44.024 22.775 67.346.862 4.087.166 8.664-.554 12.888-1.359 7.974-1.115 15.745.175 23.75 2.514 15.599.569 31.037-3.325 46.265-.746 2.916-2.569 3.799-5.196 2.861-4.05-1.447-8.347-1.97-12.471-3.005-6.638-1.666-9.37-5.261-9.831-11.606-.552-7.616-1.298-15.219-2.008-23.378 2.056-7.781.992-16.002-.51-24.216-.177-.971-.397-2.099-.084-2.97z"/></svg>